# xmcd CD database file
#
# Track frame offsets:
#	150
#	188702
#	230109
#
# Disc length: 4115 seconds
#
# Revision: 0
# Processed by: cddbd v1.5.1PL0 Copyright (c) Steve Scherf et al.
# Submitted via: CDex 1.51
#
DISCID=21101103
DTITLE=Various Artist - Bravo Hit Mix No. 6
DYEAR=1998
DGENRE=Mix
TTITLE0=Barvo Hit Mix Sex
TTITLE1=Bravo DJ Tip Mix
TTITLE2=Bravo Slow Mix
EXTD=YEAR: 1998
EXTT0=
EXTT1=
EXTT2=
PLAYORDER=
